<svg width="496" height="512" viewBox="0 0 496 512" fill="none" xmlns="http://www.w3.org/2000/svg">
<g id="magician-beared-svg" clip-path="url(#clip0)">
<path id="Vector" d="M377.166 260.144C394.074 265.308 406.421 281.485 406.421 300.602C406.421 319.788 394.008 335.976 377.023 341.106C377.111 338.974 377.166 336.82 377.166 334.654V300.614V260.144Z" fill="#DBA983"/>
<path id="face" d="M377.713 341.105C375.714 384.356 353.848 422.226 321.346 445.197C321.059 445.414 320.772 445.607 320.496 445.801C308.226 454.328 294.466 460.746 279.711 464.531C279.402 456.642 216.895 456.642 216.585 464.531C201.831 460.746 188.06 454.328 175.801 445.801C175.525 445.607 175.227 445.413 174.95 445.197C142.449 422.226 120.583 384.356 118.584 341.105C118.496 338.973 118.44 336.819 118.44 334.653V300.613C140.506 289.931 135.36 213.233 135.36 213.233C198.882 216.676 307.073 216.676 370.585 213.233C370.585 213.233 355.778 289.931 377.855 300.613V334.653C377.856 336.819 377.801 338.974 377.713 341.105Z" fill="#FFD3AE"/>
<path id="left-face-part" d="M119.19 210.852C118.805 215.055 118.599 219.312 118.599 223.619C118.599 223.619 118.246 241.325 118.599 241.351V260.225C101.819 265.471 89.5909 281.578 89.5909 300.602C89.5909 319.682 101.869 335.804 118.71 341.016C118.722 341.358 118.728 341.7 118.743 342.042C120.741 385.282 142.608 423.152 175.109 446.134C175.385 446.339 175.684 446.544 175.96 446.738C196.622 461.09 221.514 469.481 248.306 469.481C257.783 469.481 267.017 468.412 275.914 466.419C259.656 462.779 244.53 456.013 231.177 446.738C230.901 446.544 230.602 446.339 230.326 446.134C197.825 423.152 175.959 385.282 173.959 342.042C173.871 339.899 173.816 337.744 173.816 335.578V301.538V261.08C173.816 252.03 180.969 244.722 189.735 244.828C222.784 245.225 299.35 245.812 342.584 243.469C354.047 242.853 365.5 242.124 376.951 241.28V239.502L377.194 239.434C374.645 230.548 372.447 221.656 370.585 212.766C295.008 220.231 165.936 213.652 119.19 210.852Z" fill="#DBA983"/>
<g id="Group">
<path id="agech" d="M216.443 464.531C216.752 456.642 219.822 448.845 225.664 442.814C231.837 436.442 239.922 433.261 248.006 433.261C256.09 433.261 264.173 436.442 270.347 442.814C276.189 448.845 279.26 456.642 279.569 464.531C279.591 464.976 279.602 465.432 279.602 465.876C279.602 474.221 276.52 482.565 270.347 488.938L248.006 512L225.664 488.938C219.16 482.224 216.089 473.321 216.443 464.531Z" fill="#4D4D4D"/>
<path id="Vector_2" d="M377.713 260.144V300.613C355.637 289.931 343.345 213.233 343.345 213.233C354.809 212.617 366.261 211.888 377.713 211.044V260.144Z" fill="#4D4D4D"/>
</g>
<path id="middile-hat" d="M377.978 10.909C307.21 -1.038 236.454 -3.17 165.687 4.502C150.271 6.166 134.842 8.31 119.426 10.909C134.412 63.189 137.56 115.457 128.846 167.737C126.537 181.576 123.401 195.427 119.426 209.267H118.299V211.045C129.751 211.889 141.203 212.618 152.666 213.234C156.631 213.451 160.606 213.656 164.582 213.838C224.14 216.665 283.797 216.46 343.344 213.234C354.808 212.618 366.26 211.889 377.712 211.045V209.267L377.955 209.199C373.99 195.382 370.865 181.554 368.557 167.738C359.844 115.457 362.992 63.189 377.978 10.909Z" fill="#666666"/>
<path id="Vector_3" d="M377.956 209.198L377.713 209.266V211.044C366.26 211.888 354.809 212.617 343.345 213.233C283.798 216.459 224.141 216.664 164.583 213.837C160.607 213.655 156.631 213.449 152.667 213.233C141.204 212.617 129.751 211.888 118.3 211.044V209.266H119.427C123.402 195.427 126.539 181.576 128.847 167.736C143.678 170.062 158.51 171.954 173.331 173.413C238.4 179.808 303.491 177.916 368.559 167.736C370.866 181.553 373.991 195.381 377.956 209.198Z" fill="#F95428"/>
<path id="Vector_4" d="M152.666 213.233C152.666 213.233 140.364 289.931 118.299 300.613V260.144V211.045C129.75 211.888 141.203 212.618 152.666 213.233Z" fill="#4D4D4D"/>
<g id="Group_2">
<path id="kindib-left" d="M218.464 360.086C214.805 360.086 211.838 357.024 211.838 353.246V295.118C211.838 283.332 202.549 273.743 191.131 273.743C179.713 273.743 170.423 283.331 170.423 295.118C170.423 298.896 167.456 301.958 163.797 301.958C160.138 301.958 157.171 298.896 157.171 295.118C157.171 275.788 172.405 260.063 191.131 260.063C209.856 260.063 225.09 275.788 225.09 295.118V353.246C225.09 357.024 222.123 360.086 218.464 360.086Z" fill="#DBA983"/>
<path id="kindib-right" d="M277.548 360.086C273.889 360.086 270.922 357.024 270.922 353.246V295.118C270.922 275.788 286.15 260.063 304.87 260.063C323.595 260.063 338.829 275.788 338.829 295.118C338.829 298.896 335.862 301.958 332.203 301.958C328.544 301.958 325.577 298.896 325.577 295.118C325.577 283.332 316.288 273.743 304.87 273.743C293.459 273.743 284.174 283.331 284.174 295.118V353.246C284.173 357.024 281.206 360.086 277.548 360.086Z" fill="#DBA983"/>
 <animateTransform attributeName="transform"
                              attributeType="XML"
                              type="translate"
                              from="1"
                              to="0"
                              dur="3s"
                              repeatCount="indefinite"/>
</g>
<g id="Group_3">
<path id="left-eye" d="M190.579 326.502C186.005 326.502 182.296 322.674 182.296 317.952V301.525C182.296 296.803 186.005 292.975 190.579 292.975C195.154 292.975 198.862 296.803 198.862 301.525V317.952C198.862 322.675 195.154 326.502 190.579 326.502Z" fill="#4D4D4D"/>
<path id="right-eye" d="M305.432 326.502C300.858 326.502 297.149 322.674 297.149 317.952V301.525C297.149 296.803 300.858 292.975 305.432 292.975C310.007 292.975 313.715 296.803 313.715 301.525V317.952C313.715 322.675 310.007 326.502 305.432 326.502Z" fill="#4D4D4D"/>
<animateMotion  dur="10s" repeatCount="indefinite"
      path="M 10 2 M 20 20 C20,50 0,0 0,0 z" />
</g>
<path id="Vector_5" d="M165.687 4.50201C150.271 6.16601 134.842 8.31001 119.426 10.909C134.412 63.189 137.56 115.457 128.846 167.737C126.537 181.576 123.401 195.427 119.426 209.267H118.299V211.045C129.751 211.889 141.203 212.618 152.666 213.234C156.631 213.451 160.606 213.656 164.582 213.838C168.591 201.104 171.429 187.459 173.329 173.414C182.208 108.195 171.153 34.507 165.687 4.50201Z" fill="#4D4D4D"/>
<path id="Vector_6" d="M173.329 173.414C171.429 187.459 168.591 201.104 164.582 213.838C160.606 213.656 156.63 213.45 152.666 213.234C141.203 212.618 129.75 211.889 118.299 211.045V209.267H119.426C123.401 195.428 126.538 181.577 128.846 167.737C143.677 170.062 158.509 171.954 173.329 173.414Z" fill="#E54728"/>
<path id="mustash" d="M344.685 364.977C338.347 368.249 331.477 369.868 324.641 369.868C315.618 369.868 306.651 367.064 298.998 361.546C292.161 356.621 284.354 353.76 276.403 352.996C272.703 352.62 268.981 352.711 265.293 353.247C257.709 354.35 251.603 359.58 248.701 366.504C245.798 359.58 239.687 354.351 232.111 353.247C228.422 352.711 224.69 352.62 221.002 352.996C213.04 353.76 205.242 356.621 198.407 361.546C190.743 367.064 181.775 369.868 172.764 369.868C165.917 369.868 159.059 368.249 152.72 364.977L150.047 363.609L158.385 383.274C170.113 410.953 203.332 420.802 227.507 403.771C227.507 403.771 247.078 388.493 248.703 384.651C250.329 388.493 269.888 403.771 269.888 403.771C294.062 420.802 327.292 410.953 339.021 383.274L347.359 363.609L344.685 364.977Z" fill="#4D4D4D"/>
<path id="hat-bar" d="M460.231 211.626C433.174 214.886 405.609 217.565 378.299 219.572C366.846 220.416 355.229 221.157 343.776 221.772C312.004 223.493 280.01 224.36 248.007 224.36C216.014 224.36 184.02 223.494 152.237 221.772C147.842 221.533 143.414 221.282 138.985 220.997C131.884 220.575 124.771 220.096 117.715 219.572C90.4037 217.566 62.8283 214.887 35.7711 211.626C31.2325 211.079 27.9746 206.827 28.5045 202.141C29.0344 197.455 33.1535 194.093 37.6931 194.64C64.5071 197.878 91.8288 200.522 118.886 202.517C126.473 203.076 134.137 203.589 141.768 204.045C145.556 204.284 149.333 204.49 153.098 204.695C216.08 208.104 279.945 208.104 342.915 204.695C354.268 204.091 365.776 203.35 377.129 202.518C404.186 200.523 431.496 197.878 458.31 194.641C462.86 194.094 466.968 197.457 467.498 202.142C468.029 206.827 464.769 211.079 460.231 211.626Z" fill="#666666"/>
<path id="Vector_7" d="M138.984 220.997C131.883 220.575 124.77 220.096 117.714 219.572C90.4028 217.566 62.8273 214.887 35.7701 211.626C31.2315 211.079 27.9736 206.827 28.5035 202.141C29.0334 197.456 33.1525 194.093 37.6921 194.64C64.5061 197.878 91.8278 200.522 118.885 202.517C126.472 203.076 134.136 203.589 141.767 204.045C139.502 208.149 137.536 214.054 138.984 220.997Z" fill="#4D4D4D"/>
</g>
<defs>
<clipPath id="clip0">
<rect width="496" height="512" fill="white"/>
</clipPath>
</defs>
</svg>
