<svg width="372" height="349" viewBox="0 0 372 349" fill="none" xmlns="http://www.w3.org/2000/svg">
<g id="magic-celebreate-svg" clip-path="url(#clip0)">
<path id="Vector" d="M280.593 340.803C236.937 348.411 193.282 350.727 149.625 347.735C138.104 346.945 126.582 345.783 115.062 344.254C107.563 343.259 114.917 240.674 114.917 240.674L104.844 203.102L137.081 208.408C148.025 207.445 153.284 206.05 164.229 205.755C198.205 204.824 266.596 207.347 273.748 223.018C267.411 262.279 269.692 301.541 280.593 340.803Z" fill="#324A5E"/>
<path id="Vector_2" d="M139.021 218.067H139.012C139.012 218.067 123.753 219.459 110.296 221.366C106.668 221.879 103.04 222.43 99.4126 223.018C99.837 225.644 100.222 228.271 100.569 230.897C102.121 242.646 102.543 252.283 102.543 252.283C104.078 281.787 100.761 311.298 92.5662 340.802C111.586 344.113 130.606 346.429 149.626 347.734V347.726C166.907 314.561 171.004 252.728 171.844 216.173C160.9 216.467 149.965 217.105 139.021 218.067Z" fill="#446072"/>
<path id="Vector_3" d="M177.469 17.39L164.71 29.0583L167.721 45.5329L151.95 37.7574L136.18 45.5329L139.191 29.0583L126.441 17.39L144.069 14.9866L151.95 0L159.84 14.9866L177.469 17.39Z" fill="#2BA5F7"/>
<path id="Vector_4" d="M168.028 71.39L155.269 83.0583L158.28 99.5329L142.51 91.7574L126.739 99.5329L129.75 83.0583L117 71.39L134.629 68.9866L142.51 54L150.399 68.9866L168.028 71.39Z" fill="#FFD15D"/>
<path id="Vector_5" d="M105.003 114.187L89.8002 128.099L93.3887 147.734L74.5896 138.462L55.7818 147.734L59.379 128.099L44.1677 114.187L65.1901 111.322L74.5896 93.4543L83.9892 111.322L105.003 114.187Z" fill="#F95428"/>
<g id="Group">
<path id="Vector_6" d="M141.414 187.521L137.081 208.408L104.409 222.238C102.746 222.485 101.075 222.747 99.4126 223.018C97.7328 212.615 95.4507 202.221 92.5662 191.818L92.4137 189.63C108.736 188.675 125.075 187.966 141.414 187.521Z" fill="#E54728"/>
<path id="Vector_7" d="M280.738 189.701L280.593 191.818C277.709 202.221 275.427 212.615 273.747 223.018C228.844 215.752 183.941 214.104 139.021 218.067L146.979 196.204C151.755 191.723 167.229 191.524 171.903 186.964C208.196 186.645 244.496 187.553 280.738 189.701Z" fill="#E54728"/>
</g>
<path id="Vector_8" d="M360.601 202.389C360.355 202.389 360.106 202.375 359.856 202.348C333.435 199.458 306.682 197.208 280.341 195.659C244.496 193.533 208.036 192.618 171.964 192.932L141.539 193.488C125.566 193.925 109.151 194.632 92.8104 195.587C66.0838 197.145 38.9437 199.419 12.143 202.348C8.65117 202.723 5.49281 200.384 5.08739 197.109C4.68124 193.835 7.18061 190.871 10.671 190.49C37.6977 187.537 65.068 185.243 92.0206 183.673C108.5 182.708 125.057 181.996 141.231 181.554L171.772 180.995C171.814 180.995 171.855 180.995 171.896 180.995C208.217 180.678 244.994 181.601 281.139 183.744C307.704 185.306 334.684 187.576 361.329 190.49C364.819 190.872 367.319 193.836 366.912 197.11C366.535 200.15 363.784 202.389 360.601 202.389Z" fill="#324A5E"/>
<g id="Group_2">
<path id="Vector_9" d="M257.052 67.7448C253.538 67.7448 250.689 65.0721 250.689 61.7757V22.9215C250.689 19.6251 253.538 16.9524 257.052 16.9524C260.566 16.9524 263.415 19.6251 263.415 22.9215V61.7757C263.415 65.0721 260.566 67.7448 257.052 67.7448Z" fill="#2BA5F7"/>
<path id="Vector_10" d="M257.052 171.356C253.538 171.356 250.689 168.684 250.689 165.387V126.533C250.689 123.237 253.538 120.564 257.052 120.564C260.566 120.564 263.415 123.237 263.415 126.533V165.387C263.415 168.684 260.566 171.356 257.052 171.356Z" fill="#2BA5F7"/>
<path id="Vector_11" d="M222.54 100.123H181.125C177.61 100.123 174.762 97.4507 174.762 94.1543C174.762 90.8579 177.61 88.1852 181.125 88.1852H222.54C226.054 88.1852 228.902 90.8579 228.902 94.1543C228.902 97.4507 226.054 100.123 222.54 100.123Z" fill="#2BA5F7"/>
<path id="Vector_12" d="M332.979 100.123H291.564C288.05 100.123 285.202 97.4507 285.202 94.1543C285.202 90.8579 288.05 88.1852 291.564 88.1852H332.979C336.494 88.1852 339.342 90.8579 339.342 94.1543C339.342 97.4507 336.494 100.123 332.979 100.123Z" fill="#FFD15D"/>
</g>
<g id="Group_3">
<path id="Vector_13" d="M281.457 77.2292C279.828 77.2292 278.2 76.6464 276.957 75.4808C274.472 73.1496 274.472 69.3699 276.957 67.0394L290.9 53.958C293.386 51.6268 297.414 51.6268 299.899 53.958C302.384 56.2892 302.384 60.0689 299.899 62.3994L285.955 75.4808C284.712 76.6457 283.083 77.2292 281.457 77.2292Z" fill="#F95428"/>
<path id="Vector_14" d="M295.399 136.1C293.771 136.1 292.143 135.517 290.9 134.351L276.956 121.27C274.471 118.939 274.471 115.159 276.956 112.829C279.442 110.497 283.47 110.497 285.955 112.829L299.898 125.91C302.383 128.241 302.383 132.021 299.898 134.351C298.656 135.517 297.027 136.1 295.399 136.1Z" fill="#F95428"/>
<path id="Vector_15" d="M232.647 77.2292C231.019 77.2292 229.391 76.6464 228.148 75.4808L214.204 62.3994C211.72 60.0682 211.72 56.2885 214.204 53.958C216.69 51.6268 220.718 51.6268 223.203 53.958L237.146 67.0394C239.631 69.3706 239.631 73.1503 237.146 75.4808C235.905 76.6457 234.276 77.2292 232.647 77.2292Z" fill="#FFD15D"/>
</g>
<path id="Vector_16" d="M171.903 186.964C167.229 191.524 162.504 196.037 157.727 200.518L139.021 218.068H139.012L102.542 252.283L59.6748 292.5C55.5094 296.408 48.7567 296.408 44.5993 292.5C40.4339 288.592 40.4339 282.257 44.5993 278.357L99.9452 226.433L104.408 222.239L141.412 187.522L142.642 186.368C170.485 160.247 199.804 135.582 230.395 112.541L260.978 89.5001L236.418 118.192C216.068 141.971 194.529 164.933 171.903 186.964Z" fill="#F7B239"/>
</g>
<defs>
<clipPath id="clip0">
<rect width="372" height="349" fill="white"/>
</clipPath>
</defs>
</svg>
